# xmcd
#
# Track frame offsets:
#	150
#	9867
#	23367
#	35035
#	43718
#	57218
#	68961
#	81184
#	97177
#	119602
#	128152
#	144250
#
# Disc length: 2107 seconds
#
# Revision: 1
# Processed by: cddbd v1.5.2PL0 Copyright (c) Steve Scherf et al.
# Submitted via: audiograbber 1.83.01
#
DISCID=9c08390c
DTITLE=Woody Pines - Lonesome Shack Blues
DYEAR=2007
DGENRE=Alt Folk
TTITLE0=Lonesome Shack
TTITLE1=Train Carried My Gal From Town
TTITLE2=You Can't Win
TTITLE3=Duncan and Brandy
TTITLE4=Death of Mother Jones
TTITLE5=If You Don't Want Me
TTITLE6=Stew Ball
TTITLE7=Delia
TTITLE8=Blues All Around My Bed
TTITLE9=The World Stands Still
TTITLE10=Candy Man
TTITLE11=Delta Bound
EXTD=
EXTT0=
EXTT1=
EXTT2=
EXTT3=
EXTT4=
EXTT5=
EXTT6=
EXTT7=
EXTT8=
EXTT9=
EXTT10=
EXTT11=
PLAYORDER=
